#!OML:ASF I:\golf\golf\golf 2\Subject 1\2002-09-07\Subject1.ASF
:FULLY-SPECIFIED
:DEGREES
261
root -7.64535 17.9808 1.65736 10.5714 63.3631 -9.4471
lowerback 5.89996 -8.76609 -7.94353
upperback 3.47917 -11.9771 1.64863
thorax 2.36046 -6.19243 6.30707
lowerneck -9.17892 17.7643 3.82322
upperneck 16.1595 27.3561 -16.5428
head 9.54558 11.8205 -2.56676
rclavicle -1.37559e-013 2.38542e-014
rhumerus 23.6322 -18.4024 -62.3226
rradius 99.5782
rwrist -10.7065
rhand -61.6306 43.8365
rfingers 7.12502
rthumb -33.7027 16.9873
lclavicle -1.37559e-013 2.38542e-014
lhumerus 102.451 -45.942 49.5488
lradius 28.981
lwrist -14.3983
lhand 150.348 178.611
lfingers 7.12502
lthumb -182.982 208.569
rfemur -38.5236 5.00224 16.7412
rtibia 30.1574
rfoot -7.47572 10.8531
rtoes 5.44004
lfemur -19.406 16.2739 -5.62956
ltibia 22.7889
lfoot -7.34263 14.0866
ltoes -13.7047
262
root -7.65701 17.9817 1.59061 10.5711 64.7429 -9.60397
lowerback 5.77642 -8.61231 -7.62087
upperback 3.73008 -11.7373 1.81545
thorax 2.62176 -6.08505 6.27122
lowerneck -9.51954 17.3664 4.41789
upperneck 16.532 26.8184 -16.6021
head 9.7697 11.5504 -2.70346
rclavicle 3.04538e-013 -6.20208e-014
rhumerus 23.0398 -18.6101 -62.7758
rradius 99.474
rwrist -11.628
rhand -61.7176 42.9602
rfingers 7.12502
rthumb -33.7854 16.1291
lclavicle 3.04538e-013 -6.20208e-014
lhumerus 102.477 -46.8911 49.5167
lradius 28.7005
lwrist -14.3225
lhand 150.643 179.254
lfingers 7.12502
lthumb -182.696 209.216
rfemur -38.6348 4.48714 16.4614
rtibia 30.1596
rfoot -7.3074 9.97829
rtoes 6.07762
lfemur -20.6001 16.5118 -6.18565
ltibia 23.0486
lfoot -7.35367 13.5427
ltoes -11.9383
263
root -7.67137 17.9833 1.5255 10.4557 66.2744 -9.85178
lowerback 5.76329 -8.62589 -7.39937
upperback 3.90847 -11.7403 2.15743
thorax 2.84812 -6.10349 6.48451
lowerneck -9.77266 17.0191 4.69994
upperneck 16.7775 26.3911 -16.7663
head 9.9199 11.324 -2.83365
rclavicle -3.65764e-014 -2.06736e-014
rhumerus 22.6544 -18.4511 -63.2948
rradius 99.3474
rwrist -12.4244
rhand -61.7968 42.2517
rfingers 7.12502
rthumb -33.8607 15.4371
lclavicle -3.65764e-014 -2.06736e-014
lhumerus 102.042 -47.3893 49.6392
lradius 28.518
lwrist -13.8882
lhand 151.133 180.425
lfingers 7.12502
lthumb -182.223 210.394
rfemur -38.6961 3.8461 16.2888
rtibia 30.1737
rfoot -7.19933 8.87726
rtoes 5.38545
lfemur -21.8076 16.7416 -6.73073
ltibia 23.3021
lfoot -7.193 12.8384
ltoes -12.3154
264
root -7.68377 17.9854 1.46027 10.3245 67.7784 -10.1046
lowerback 5.70481 -8.61527 -7.1152
upperback 4.08364 -11.7057 2.44971
thorax 3.0655 -6.09838 6.60944
lowerneck -10.095 16.6199 4.94512
upperneck 17.1034 25.8718 -16.7811
head 10.0691 11.0568 -2.92725
rclavicle 7.31528e-014 6.67916e-014
rhumerus 22.1445 -18.3796 -63.8547
rradius 99.2008
rwrist -13.1286
rhand -61.7844 43.0874
rfingers 7.12502
rthumb -33.8489 16.2702
lclavicle 7.31528e-014 6.67916e-014
lhumerus 101.53 -47.9865 49.8848
lradius 28.1023
lwrist -13.5435
lhand 151.358 180.851
lfingers 7.12502
lthumb -182.006 210.821
rfemur -38.7113 3.43981 15.9822
rtibia 30.209
rfoot -7.14558 7.52676
rtoes 5.48275
lfemur -22.9499 16.9263 -7.29601
ltibia 23.5379
lfoot -7.21328 12.166
ltoes -12.4029
265
root -7.69452 17.9861 1.39302 10.228 69.2959 -10.3659
lowerback 5.48361 -8.61864 -6.86811
upperback 4.29647 -11.6847 2.81437
thorax 3.43973 -6.10926 6.7964
lowerneck -10.4437 16.2298 5.00186
upperneck 17.3464 25.3701 -16.7886
head 10.169 10.7946 -2.99481
rclavicle 1.75726e-013 -8.5875e-014
rhumerus 21.7509 -18.2102 -64.4309
rradius 98.9997
rwrist -13.7152
rhand -61.9203 43.1543
rfingers 7.12502
rthumb -33.978 16.3656
lclavicle 1.75726e-013 -8.5875e-014
lhumerus 100.747 -48.5322 50.5376
lradius 27.5102
lwrist -13.5403
lhand 151.3 180.346
lfingers 7.12502
lthumb -182.062 210.316
rfemur -38.7672 3.04223 15.6195
rtibia 30.2785
rfoot -7.29824 6.27673
rtoes 4.79151
lfemur -24.1105 16.9165 -7.87268
ltibia 23.7452
lfoot -7.29423 11.6842
ltoes -11.7331
266
root -7.70577 17.9802 1.32597 9.85536 70.9463 -10.921
lowerback 5.31514 -8.64078 -6.67114
upperback 4.45043 -11.7023 3.36034
thorax 3.7824 -6.14473 7.21147
lowerneck -10.777 15.7934 4.93698
upperneck 17.6017 24.8643 -16.923
head 10.2755 10.5146 -3.09143
rclavicle -2.00375e-013 3.81667e-014
rhumerus 21.3686 -17.9748 -64.8471
rradius 98.8553
rwrist -14.169
rhand -62.2151 38.5372
rfingers 7.12502
rthumb -34.2579 11.8111
lclavicle -2.00375e-013 3.81667e-014
lhumerus 99.583 -49.1169 51.7047
lradius 26.9758
lwrist -13.6253
lhand 151.593 180.321
lfingers 7.12502
lthumb -181.779 210.294
rfemur -38.8261 2.49239 15.3928
rtibia 30.3769
rfoot -7.58158 5.05193
rtoes 2.0848
lfemur -25.2702 16.7345 -8.35503
ltibia 23.9111
lfoot -7.35543 11.2164
ltoes -10.8816
